<svg xmlns="http://www.w3.org/2000/svg" xmlns:xlink="http://www.w3.org/1999/xlink" width="1080" zoomAndPan="magnify" viewBox="0 0 810 809.999993" height="1080" preserveAspectRatio="xMidYMid meet" version="1.0"><defs><clipPath id="4de7db0ecf"><path d="M 118.304688 0 L 692 0 L 692 810 L 118.304688 810 Z M 118.304688 0 " clip-rule="nonzero"/></clipPath></defs><path fill="#ffd4aa" d="M 331.394531 802.8125 L 612.5625 802.8125 L 612.5625 750.75 L 612.601562 746.832031 L 612.726562 742.921875 L 612.933594 739.007812 L 613.226562 735.101562 L 613.601562 731.203125 L 614.058594 727.3125 L 614.597656 723.433594 L 615.21875 719.566406 L 615.925781 715.714844 L 616.710938 711.878906 L 617.578125 708.058594 L 618.527344 704.257812 L 619.554688 700.480469 L 620.667969 696.726562 L 621.855469 692.992188 L 623.125 689.285156 L 624.472656 685.609375 L 625.898438 681.960938 L 627.398438 678.34375 L 628.976562 674.757812 L 630.632812 671.210938 L 632.363281 667.695312 L 634.167969 664.21875 L 636.046875 660.78125 L 637.996094 657.382812 L 640.019531 654.03125 L 642.113281 650.71875 L 644.277344 647.453125 L 646.507812 644.234375 L 648.929688 640.746094 L 651.277344 637.207031 L 653.554688 633.621094 L 655.757812 629.992188 L 657.882812 626.3125 L 659.933594 622.59375 L 661.910156 618.835938 L 663.804688 615.035156 L 665.621094 611.195312 L 667.359375 607.320312 L 669.019531 603.410156 L 670.59375 599.46875 L 672.09375 595.492188 L 673.503906 591.488281 L 674.835938 587.457031 L 676.085938 583.398438 L 677.25 579.3125 L 678.328125 575.207031 L 679.324219 571.078125 L 680.234375 566.929688 L 681.058594 562.765625 L 681.796875 558.585938 L 682.449219 554.386719 L 683.015625 550.179688 L 683.496094 545.960938 L 683.886719 541.730469 L 684.191406 537.496094 L 684.410156 533.257812 L 684.542969 529.011719 L 684.585938 524.765625 L 684.585938 282.492188 L 684.542969 280.417969 L 684.417969 278.351562 L 684.210938 276.289062 L 683.917969 274.238281 L 683.546875 272.199219 L 683.089844 270.179688 L 682.550781 268.175781 L 681.9375 266.199219 L 681.242188 264.246094 L 680.464844 262.324219 L 679.613281 260.433594 L 678.6875 258.582031 L 677.6875 256.765625 L 676.617188 254.992188 L 675.472656 253.261719 L 674.257812 251.582031 L 672.980469 249.949219 L 671.636719 248.371094 L 670.230469 246.847656 L 668.765625 245.382812 L 667.242188 243.976562 L 665.660156 242.636719 L 664.027344 241.359375 L 662.347656 240.144531 L 660.617188 239.003906 L 658.84375 237.929688 L 657.027344 236.933594 L 655.171875 236.007812 L 653.28125 235.15625 L 651.355469 234.382812 L 649.402344 233.6875 L 647.425781 233.070312 L 645.421875 232.535156 L 643.398438 232.078125 L 641.359375 231.703125 L 639.304688 231.414062 L 637.242188 231.207031 L 635.171875 231.082031 L 633.097656 231.039062 L 631.027344 231.082031 L 628.957031 231.207031 L 626.894531 231.414062 L 624.84375 231.703125 L 622.800781 232.078125 L 620.777344 232.535156 L 618.773438 233.070312 L 616.796875 233.6875 L 614.84375 234.382812 L 612.917969 235.15625 L 611.027344 236.007812 L 609.171875 236.933594 L 607.359375 237.929688 L 605.582031 239.003906 L 603.851562 240.144531 L 602.171875 241.359375 L 600.539062 242.636719 L 598.957031 243.976562 L 597.433594 245.382812 L 595.96875 246.847656 L 594.5625 248.371094 L 593.21875 249.949219 L 591.941406 251.582031 L 590.726562 253.261719 L 589.585938 254.992188 L 588.511719 256.765625 L 587.511719 258.582031 L 586.585938 260.433594 L 585.734375 262.324219 L 584.960938 264.246094 L 584.265625 266.199219 L 583.644531 268.175781 L 583.109375 270.179688 L 582.652344 272.199219 L 582.28125 274.238281 L 581.992188 276.289062 L 581.78125 278.351562 L 581.65625 280.417969 L 581.613281 282.492188 L 581.613281 238.492188 L 581.570312 236.414062 L 581.445312 234.335938 L 581.238281 232.269531 L 580.945312 230.210938 L 580.570312 228.164062 L 580.113281 226.132812 L 579.574219 224.125 L 578.953125 222.140625 L 578.253906 220.179688 L 577.480469 218.25 L 576.625 216.355469 L 575.695312 214.496094 L 574.691406 212.671875 L 573.613281 210.894531 L 572.46875 209.15625 L 571.25 207.46875 L 569.964844 205.832031 L 568.617188 204.25 L 567.207031 202.71875 L 565.734375 201.25 L 564.207031 199.839844 L 562.621094 198.492188 L 560.984375 197.210938 L 559.292969 195.992188 L 557.558594 194.847656 L 555.777344 193.769531 L 553.953125 192.765625 L 552.089844 191.835938 L 550.191406 190.984375 L 548.261719 190.207031 L 546.304688 189.511719 L 544.316406 188.890625 L 542.304688 188.351562 L 540.277344 187.894531 L 538.230469 187.519531 L 536.167969 187.230469 L 534.097656 187.019531 L 532.019531 186.894531 L 529.9375 186.851562 L 527.859375 186.894531 L 525.78125 187.019531 L 523.710938 187.230469 L 521.652344 187.519531 L 519.605469 187.894531 L 517.574219 188.351562 L 515.5625 188.890625 L 513.578125 189.511719 L 511.617188 190.207031 L 509.6875 190.984375 L 507.789062 191.835938 L 505.925781 192.765625 L 504.101562 193.769531 L 502.324219 194.847656 L 500.585938 195.992188 L 498.898438 197.210938 L 497.257812 198.492188 L 495.671875 199.839844 L 494.144531 201.25 L 492.671875 202.71875 L 491.261719 204.25 L 489.914062 205.832031 L 488.628906 207.46875 L 487.414062 209.15625 L 486.265625 210.894531 L 485.1875 212.671875 L 484.1875 214.496094 L 483.257812 216.355469 L 482.402344 218.25 L 481.625 220.179688 L 480.925781 222.140625 L 480.304688 224.125 L 479.769531 226.132812 L 479.308594 228.164062 L 478.9375 230.210938 L 478.644531 232.269531 L 478.4375 234.335938 L 478.308594 236.414062 L 478.265625 238.492188 L 478.265625 218.800781 L 478.226562 216.71875 L 478.101562 214.644531 L 477.890625 212.574219 L 477.597656 210.515625 L 477.222656 208.472656 L 476.765625 206.441406 L 476.226562 204.433594 L 475.609375 202.449219 L 474.910156 200.488281 L 474.132812 198.558594 L 473.277344 196.660156 L 472.347656 194.800781 L 471.34375 192.980469 L 470.265625 191.199219 L 469.117188 189.464844 L 467.902344 187.777344 L 466.621094 186.140625 L 465.273438 184.554688 L 463.859375 183.027344 L 462.386719 181.558594 L 460.859375 180.148438 L 459.273438 178.800781 L 457.636719 177.515625 L 455.949219 176.300781 L 454.210938 175.152344 L 452.429688 174.078125 L 450.605469 173.074219 L 448.746094 172.144531 L 446.847656 171.292969 L 444.917969 170.515625 L 442.957031 169.816406 L 440.96875 169.199219 L 438.960938 168.660156 L 436.929688 168.203125 L 434.882812 167.828125 L 432.820312 167.535156 L 430.75 167.324219 L 428.671875 167.199219 L 426.59375 167.160156 L 424.511719 167.199219 L 422.4375 167.324219 L 420.367188 167.535156 L 418.304688 167.828125 L 416.257812 168.203125 L 414.226562 168.660156 L 412.21875 169.199219 L 410.230469 169.816406 L 408.269531 170.515625 L 406.339844 171.292969 L 404.441406 172.144531 L 402.582031 173.074219 L 400.757812 174.078125 L 398.976562 175.152344 L 397.242188 176.300781 L 395.550781 177.515625 L 393.914062 178.800781 L 392.328125 180.148438 L 390.800781 181.558594 L 389.328125 183.027344 L 387.917969 184.554688 L 386.566406 186.140625 L 385.285156 187.777344 L 384.070312 189.464844 L 382.921875 191.199219 L 381.84375 192.980469 L 380.839844 194.800781 L 379.910156 196.660156 L 379.054688 198.558594 L 378.28125 200.488281 L 377.582031 202.449219 L 376.960938 204.433594 L 376.421875 206.441406 L 375.964844 208.472656 L 375.589844 210.515625 L 375.296875 212.574219 L 375.089844 214.644531 L 374.960938 216.71875 L 374.921875 218.800781 L 374.921875 58.789062 L 374.878906 56.71875 L 374.753906 54.648438 L 374.546875 52.585938 L 374.253906 50.535156 L 373.882812 48.496094 L 373.425781 46.476562 L 372.886719 44.472656 L 372.269531 42.496094 L 371.574219 40.542969 L 370.800781 38.621094 L 369.949219 36.730469 L 369.023438 34.878906 L 368.023438 33.0625 L 366.949219 31.289062 L 365.804688 29.5625 L 364.59375 27.878906 L 363.316406 26.25 L 361.972656 24.667969 L 360.566406 23.148438 L 359.101562 21.679688 L 357.578125 20.277344 L 355.996094 18.933594 L 354.363281 17.65625 L 352.683594 16.445312 L 350.953125 15.300781 L 349.175781 14.230469 L 347.363281 13.230469 L 345.503906 12.304688 L 343.617188 11.453125 L 341.691406 10.679688 L 339.738281 9.984375 L 337.757812 9.367188 L 335.753906 8.832031 L 333.734375 8.375 L 331.691406 8.003906 L 329.640625 7.710938 L 327.578125 7.503906 L 325.507812 7.378906 L 323.433594 7.335938 L 321.363281 7.378906 L 319.292969 7.503906 L 317.230469 7.710938 L 315.175781 8.003906 L 313.136719 8.375 L 311.113281 8.832031 L 309.109375 9.367188 L 307.128906 9.984375 L 305.179688 10.679688 L 303.253906 11.453125 L 301.363281 12.304688 L 299.507812 13.230469 L 297.691406 14.230469 L 295.917969 15.300781 L 294.1875 16.445312 L 292.503906 17.65625 L 290.871094 18.933594 L 289.292969 20.277344 L 287.769531 21.679688 L 286.300781 23.148438 L 284.898438 24.667969 L 283.554688 26.25 L 282.273438 27.878906 L 281.0625 29.5625 L 279.917969 31.289062 L 278.847656 33.0625 L 277.847656 34.878906 L 276.921875 36.730469 L 276.070312 38.621094 L 275.292969 40.542969 L 274.597656 42.496094 L 273.980469 44.472656 L 273.445312 46.476562 L 272.988281 48.496094 L 272.613281 50.535156 L 272.324219 52.585938 L 272.113281 54.648438 L 271.988281 56.71875 L 271.949219 58.789062 L 271.949219 365.699219 L 270.738281 363.078125 L 269.453125 360.496094 L 268.089844 357.953125 L 266.652344 355.453125 L 265.140625 352.992188 L 263.558594 350.582031 L 261.902344 348.214844 L 260.179688 345.902344 L 258.386719 343.640625 L 256.53125 341.433594 L 254.605469 339.28125 L 252.621094 337.1875 L 250.574219 335.152344 L 248.46875 333.179688 L 246.304688 331.273438 L 244.085938 329.425781 L 241.808594 327.648438 L 239.484375 325.941406 L 237.109375 324.300781 L 234.6875 322.730469 L 232.21875 321.234375 L 229.707031 319.8125 L 227.15625 318.464844 L 224.5625 317.195312 L 221.9375 316 L 219.273438 314.886719 L 216.578125 313.847656 L 213.855469 312.894531 L 211.105469 312.019531 L 208.328125 311.226562 L 205.53125 310.519531 L 202.714844 309.890625 L 199.878906 309.347656 L 197.027344 308.890625 L 194.164062 308.515625 L 191.292969 308.226562 L 188.414062 308.023438 L 185.53125 307.90625 L 182.644531 307.871094 L 179.757812 307.925781 L 176.875 308.0625 L 173.996094 308.289062 L 171.125 308.597656 L 169.078125 308.886719 L 167.046875 309.261719 L 165.03125 309.71875 L 163.03125 310.253906 L 161.058594 310.871094 L 159.113281 311.5625 L 157.191406 312.332031 L 155.308594 313.179688 L 153.457031 314.101562 L 151.644531 315.097656 L 149.875 316.164062 L 148.148438 317.296875 L 146.46875 318.503906 L 144.835938 319.773438 L 143.257812 321.109375 L 141.734375 322.503906 L 140.269531 323.960938 L 138.863281 325.476562 L 137.515625 327.042969 L 136.238281 328.664062 L 135.019531 330.335938 L 133.875 332.054688 L 132.796875 333.820312 L 131.789062 335.625 L 130.855469 337.46875 L 129.996094 339.347656 L 129.214844 341.257812 L 128.507812 343.199219 L 127.882812 345.171875 L 127.335938 347.164062 L 126.867188 349.175781 L 126.480469 351.203125 L 126.171875 353.25 L 125.949219 355.300781 L 125.808594 357.363281 L 125.75 359.429688 L 125.773438 361.492188 L 125.882812 363.558594 L 126.070312 365.613281 L 126.34375 367.664062 L 126.699219 369.699219 L 127.132812 371.71875 L 127.648438 373.71875 L 128.242188 375.699219 L 128.917969 377.652344 L 129.667969 379.578125 L 130.496094 381.46875 L 131.398438 383.328125 L 132.375 385.148438 L 133.421875 386.929688 L 134.542969 388.667969 L 135.730469 390.359375 L 136.984375 392 L 138.304688 393.589844 L 139.683594 395.128906 L 141.125 396.609375 L 142.628906 398.03125 L 144.183594 399.390625 L 145.792969 400.6875 L 147.453125 401.917969 L 149.160156 403.085938 L 150.914062 404.179688 L 152.707031 405.203125 L 154.542969 406.15625 L 156.414062 407.03125 L 158.320312 407.835938 L 160.257812 408.558594 L 162.445312 409.378906 L 164.605469 410.273438 L 166.726562 411.253906 L 168.8125 412.3125 L 170.859375 413.445312 L 172.859375 414.652344 L 174.8125 415.9375 L 176.714844 417.292969 L 178.570312 418.714844 L 180.367188 420.210938 L 182.109375 421.769531 L 183.789062 423.390625 L 185.410156 425.078125 L 186.964844 426.820312 L 188.453125 428.621094 L 189.875 430.476562 L 191.226562 432.382812 L 192.503906 434.339844 L 193.710938 436.339844 L 194.839844 438.386719 L 195.890625 440.472656 L 196.863281 442.597656 L 197.757812 444.757812 L 198.570312 446.949219 L 199.300781 449.167969 L 199.945312 451.414062 L 200.507812 453.679688 L 200.984375 455.96875 L 201.375 458.273438 L 201.679688 460.589844 L 201.898438 462.914062 L 202.027344 465.246094 L 202.070312 467.582031 L 202.070312 488.015625 L 202.113281 492.578125 L 202.242188 497.140625 L 202.457031 501.695312 L 202.753906 506.25 L 203.136719 510.796875 L 203.601562 515.335938 L 204.15625 519.867188 L 204.792969 524.386719 L 205.515625 528.890625 L 206.320312 533.382812 L 207.207031 537.859375 L 208.179688 542.316406 L 209.234375 546.753906 L 210.375 551.175781 L 211.59375 555.574219 L 212.898438 559.945312 L 214.28125 564.292969 L 215.746094 568.617188 L 217.289062 572.910156 L 218.914062 577.175781 L 220.617188 581.40625 L 222.402344 585.609375 L 224.261719 589.777344 L 226.203125 593.90625 L 228.214844 598.003906 L 230.308594 602.058594 L 232.476562 606.074219 L 234.714844 610.050781 L 237.03125 613.984375 L 239.417969 617.871094 L 241.882812 621.714844 L 244.414062 625.511719 L 247.015625 629.265625 L 249.6875 632.964844 L 252.425781 636.613281 L 255.234375 640.210938 L 258.109375 643.757812 L 261.050781 647.246094 L 264.054688 650.683594 L 267.125 654.0625 L 270.257812 657.382812 L 273.449219 660.644531 L 276.703125 663.847656 L 280.015625 666.988281 L 283.386719 670.066406 L 286.8125 673.082031 L 290.296875 676.03125 L 293.832031 678.917969 L 297.421875 681.738281 L 299.574219 683.445312 L 301.671875 685.222656 L 303.707031 687.066406 L 305.6875 688.972656 L 307.605469 690.941406 L 309.460938 692.96875 L 311.25 695.050781 L 312.976562 697.191406 L 314.632812 699.386719 L 316.214844 701.628906 L 317.730469 703.921875 L 319.171875 706.261719 L 320.535156 708.644531 L 321.828125 711.070312 L 323.039062 713.535156 L 324.175781 716.039062 L 325.230469 718.574219 L 326.207031 721.144531 L 327.101562 723.742188 L 327.910156 726.363281 L 328.640625 729.015625 L 329.28125 731.683594 L 329.84375 734.375 L 330.316406 737.082031 L 330.707031 739.800781 L 331.007812 742.53125 L 331.222656 745.269531 L 331.351562 748.011719 L 331.398438 750.757812 L 331.398438 802.820312 Z M 331.394531 802.8125 " fill-opacity="1" fill-rule="nonzero"/><path fill="#ffd4aa" d="M 646.503906 644.222656 L 648.925781 640.734375 L 651.277344 637.199219 L 653.550781 633.613281 L 655.753906 629.980469 L 657.878906 626.304688 L 659.933594 622.585938 L 661.90625 618.824219 L 663.800781 615.023438 L 665.621094 611.1875 L 667.355469 607.3125 L 669.015625 603.402344 L 670.59375 599.457031 L 672.089844 595.484375 L 673.503906 591.480469 L 674.835938 587.449219 L 676.082031 583.390625 L 677.246094 579.304688 L 678.324219 575.199219 L 679.320312 571.070312 L 680.230469 566.921875 L 681.058594 562.753906 L 681.792969 558.574219 L 682.449219 554.378906 L 683.015625 550.171875 L 683.492188 545.953125 L 683.882812 541.722656 L 684.191406 537.488281 L 684.40625 533.246094 L 684.539062 529.003906 L 684.582031 524.757812 M 271.945312 58.78125 L 271.945312 428.566406 M 374.917969 58.78125 L 374.917969 379.5 M 684.578125 282.484375 L 684.578125 524.757812 M 581.605469 238.484375 L 581.605469 379.5 M 478.257812 218.792969 L 478.257812 379.5 M 202.0625 487.996094 L 202.0625 467.5625 M 331.386719 750.746094 L 331.386719 802.804688 M 612.550781 750.746094 L 612.550781 802.804688 M 374.921875 58.777344 L 374.878906 56.707031 L 374.753906 54.636719 L 374.542969 52.574219 L 374.253906 50.523438 L 373.878906 48.484375 L 373.421875 46.464844 L 372.886719 44.460938 L 372.269531 42.484375 L 371.574219 40.53125 L 370.800781 38.609375 L 369.949219 36.71875 L 369.023438 34.867188 L 368.019531 33.050781 L 366.949219 31.277344 L 365.804688 29.546875 L 364.59375 27.867188 L 363.316406 26.234375 L 361.972656 24.65625 L 360.566406 23.132812 L 359.097656 21.667969 L 357.574219 20.261719 L 355.996094 18.921875 L 354.363281 17.644531 L 352.679688 16.429688 L 350.949219 15.289062 L 349.175781 14.214844 L 347.359375 13.21875 L 345.503906 12.289062 L 343.613281 11.441406 L 341.691406 10.667969 L 339.738281 9.972656 L 337.757812 9.355469 L 335.753906 8.820312 L 333.730469 8.363281 L 331.691406 7.988281 L 329.640625 7.699219 L 327.578125 7.488281 L 325.507812 7.367188 L 323.433594 7.324219 L 321.359375 7.367188 L 319.289062 7.488281 L 317.226562 7.699219 L 315.175781 7.988281 L 313.136719 8.363281 L 311.113281 8.820312 L 309.109375 9.355469 L 307.128906 9.972656 L 305.175781 10.667969 L 303.253906 11.441406 L 301.363281 12.289062 L 299.507812 13.21875 L 297.691406 14.214844 L 295.917969 15.289062 L 294.1875 16.429688 L 292.503906 17.644531 L 290.871094 18.921875 L 289.292969 20.261719 L 287.769531 21.667969 L 286.300781 23.132812 L 284.894531 24.65625 L 283.550781 26.234375 L 282.273438 27.867188 L 281.0625 29.546875 L 279.917969 31.277344 L 278.847656 33.050781 L 277.84375 34.867188 L 276.917969 36.71875 L 276.066406 38.609375 L 275.292969 40.53125 L 274.597656 42.484375 L 273.980469 44.460938 L 273.445312 46.464844 L 272.988281 48.484375 L 272.613281 50.523438 L 272.324219 52.574219 L 272.113281 54.636719 L 271.988281 56.707031 L 271.945312 58.777344 M 297.421875 681.710938 L 293.832031 678.894531 L 290.292969 676.007812 L 286.8125 673.058594 L 283.382812 670.042969 L 280.011719 666.964844 L 276.703125 663.824219 L 273.449219 660.621094 L 270.253906 657.359375 L 267.125 654.039062 L 264.054688 650.660156 L 261.050781 647.222656 L 258.109375 643.730469 L 255.234375 640.1875 L 252.425781 636.589844 L 249.6875 632.941406 L 247.015625 629.238281 L 244.410156 625.488281 L 241.878906 621.691406 L 239.417969 617.847656 L 237.03125 613.960938 L 234.714844 610.027344 L 232.472656 606.050781 L 230.308594 602.035156 L 228.214844 597.976562 L 226.199219 593.882812 L 224.261719 589.753906 L 222.402344 585.585938 L 220.617188 581.382812 L 218.914062 577.152344 L 217.289062 572.886719 L 215.742188 568.59375 L 214.28125 564.269531 L 212.894531 559.921875 L 211.59375 555.546875 L 210.375 551.152344 L 209.234375 546.730469 L 208.179688 542.292969 L 207.207031 537.832031 L 206.316406 533.359375 L 205.511719 528.867188 L 204.792969 524.359375 L 204.15625 519.84375 L 203.601562 515.3125 L 203.132812 510.773438 L 202.753906 506.226562 L 202.453125 501.671875 L 202.242188 497.113281 L 202.113281 492.554688 L 202.070312 487.992188 M 171.125 308.566406 L 169.078125 308.855469 L 167.046875 309.230469 L 165.027344 309.6875 L 163.03125 310.222656 L 161.058594 310.839844 L 159.113281 311.53125 L 157.191406 312.300781 L 155.308594 313.148438 L 153.457031 314.070312 L 151.644531 315.066406 L 149.871094 316.132812 L 148.148438 317.265625 L 146.46875 318.472656 L 144.835938 319.742188 L 143.257812 321.078125 L 141.734375 322.472656 L 140.269531 323.929688 L 138.863281 325.445312 L 137.515625 327.011719 L 136.234375 328.632812 L 135.019531 330.304688 L 133.875 332.023438 L 132.796875 333.789062 L 131.789062 335.59375 L 130.855469 337.4375 L 129.996094 339.316406 L 129.214844 341.226562 L 128.507812 343.167969 L 127.882812 345.140625 L 127.332031 347.132812 L 126.863281 349.144531 L 126.480469 351.171875 L 126.171875 353.21875 L 125.949219 355.269531 L 125.808594 357.332031 L 125.75 359.398438 L 125.773438 361.460938 L 125.882812 363.527344 L 126.070312 365.582031 L 126.34375 367.632812 L 126.695312 369.667969 L 127.132812 371.6875 L 127.648438 373.6875 L 128.242188 375.667969 L 128.914062 377.621094 L 129.667969 379.546875 L 130.492188 381.4375 L 131.398438 383.296875 L 132.375 385.117188 L 133.421875 386.898438 L 134.539062 388.636719 L 135.730469 390.328125 L 136.984375 391.96875 L 138.300781 393.558594 L 139.683594 395.097656 L 141.125 396.578125 L 142.625 398 L 144.183594 399.359375 L 145.792969 400.65625 L 147.453125 401.886719 L 149.160156 403.050781 L 150.910156 404.148438 L 152.707031 405.171875 L 154.542969 406.125 L 156.414062 407 L 158.320312 407.804688 L 160.257812 408.527344 M 478.273438 218.777344 L 478.230469 216.699219 L 478.105469 214.625 L 477.898438 212.554688 L 477.605469 210.492188 L 477.230469 208.449219 L 476.769531 206.421875 L 476.230469 204.410156 L 475.613281 202.425781 L 474.914062 200.46875 L 474.136719 198.539062 L 473.285156 196.640625 L 472.355469 194.78125 L 471.347656 192.957031 L 470.273438 191.179688 L 469.125 189.445312 L 467.910156 187.757812 L 466.625 186.117188 L 465.277344 184.535156 L 463.867188 183.003906 L 462.394531 181.535156 L 460.867188 180.125 L 459.28125 178.777344 L 457.640625 177.496094 L 455.953125 176.277344 L 454.214844 175.132812 L 452.433594 174.058594 L 450.613281 173.054688 L 448.75 172.125 L 446.855469 171.269531 L 444.921875 170.492188 L 442.960938 169.796875 L 440.972656 169.175781 L 438.964844 168.640625 L 436.933594 168.183594 L 434.890625 167.808594 L 432.828125 167.515625 L 430.757812 167.304688 L 428.679688 167.179688 L 426.597656 167.136719 L 424.519531 167.179688 L 422.441406 167.304688 L 420.371094 167.515625 L 418.308594 167.808594 L 416.265625 168.183594 L 414.234375 168.640625 L 412.222656 169.175781 L 410.238281 169.796875 L 408.277344 170.492188 L 406.34375 171.269531 L 404.449219 172.125 L 402.585938 173.054688 L 400.765625 174.058594 L 398.984375 175.132812 L 397.246094 176.277344 L 395.558594 177.496094 L 393.921875 178.777344 L 392.335938 180.125 L 390.804688 181.535156 L 389.332031 183.003906 L 387.921875 184.535156 L 386.574219 186.117188 L 385.289062 187.757812 L 384.074219 189.445312 L 382.925781 191.179688 L 381.851562 192.957031 L 380.84375 194.78125 L 379.914062 196.640625 L 379.0625 198.539062 L 378.285156 200.46875 L 377.585938 202.425781 L 376.96875 204.410156 L 376.429688 206.421875 L 375.96875 208.449219 L 375.597656 210.492188 L 375.304688 212.554688 L 375.09375 214.625 L 374.96875 216.699219 L 374.925781 218.777344 M 478.269531 238.472656 L 478.316406 236.394531 L 478.441406 234.316406 L 478.652344 232.246094 L 478.941406 230.1875 L 479.316406 228.140625 L 479.773438 226.113281 L 480.3125 224.105469 L 480.933594 222.117188 L 481.628906 220.160156 L 482.40625 218.230469 L 483.261719 216.332031 L 484.191406 214.472656 L 485.195312 212.652344 L 486.273438 210.871094 L 487.417969 209.136719 L 488.636719 207.449219 L 489.917969 205.8125 L 491.269531 204.226562 L 492.679688 202.699219 L 494.152344 201.226562 L 495.679688 199.816406 L 497.265625 198.46875 L 498.902344 197.1875 L 500.59375 195.972656 L 502.328125 194.824219 L 504.109375 193.75 L 505.933594 192.746094 L 507.792969 191.816406 L 509.691406 190.960938 L 511.621094 190.1875 L 513.582031 189.488281 L 515.570312 188.871094 L 517.578125 188.332031 L 519.609375 187.875 L 521.65625 187.5 L 523.71875 187.207031 L 525.789062 187 L 527.867188 186.871094 L 529.945312 186.832031 L 532.027344 186.871094 L 534.105469 187 L 536.175781 187.207031 L 538.234375 187.5 L 540.28125 187.875 L 542.3125 188.332031 L 544.320312 188.871094 L 546.308594 189.488281 L 548.269531 190.1875 L 550.199219 190.960938 L 552.097656 191.816406 L 553.960938 192.746094 L 555.785156 193.75 L 557.566406 194.824219 L 559.300781 195.972656 L 560.988281 197.1875 L 562.628906 198.46875 L 564.210938 199.816406 L 565.742188 201.226562 L 567.214844 202.699219 L 568.625 204.226562 L 569.972656 205.8125 L 571.253906 207.449219 L 572.472656 209.136719 L 573.621094 210.871094 L 574.699219 212.652344 L 575.699219 214.472656 L 576.628906 216.332031 L 577.484375 218.230469 L 578.261719 220.160156 L 578.960938 222.117188 L 579.578125 224.105469 L 580.117188 226.113281 L 580.574219 228.140625 L 580.949219 230.1875 L 581.242188 232.246094 L 581.453125 234.316406 L 581.578125 236.394531 L 581.617188 238.472656 M 202.082031 467.542969 L 202.039062 465.207031 L 201.90625 462.875 L 201.6875 460.550781 L 201.382812 458.234375 L 200.992188 455.929688 L 200.515625 453.640625 L 199.953125 451.375 L 199.308594 449.128906 L 198.578125 446.910156 L 197.765625 444.71875 L 196.875 442.558594 L 195.898438 440.433594 L 194.847656 438.347656 L 193.71875 436.300781 L 192.515625 434.300781 L 191.234375 432.34375 L 189.882812 430.4375 L 188.464844 428.582031 L 186.972656 426.78125 L 185.417969 425.039062 L 183.796875 423.355469 L 182.117188 421.730469 L 180.375 420.171875 L 178.578125 418.675781 L 176.726562 417.253906 L 174.820312 415.898438 L 172.867188 414.613281 L 170.867188 413.40625 L 168.820312 412.273438 L 166.738281 411.214844 L 164.613281 410.238281 L 162.457031 409.339844 L 160.265625 408.519531 M 171.136719 308.558594 L 174.003906 308.25 L 176.882812 308.023438 L 179.765625 307.886719 L 182.652344 307.832031 L 185.539062 307.867188 L 188.425781 307.984375 L 191.304688 308.1875 L 194.175781 308.476562 L 197.039062 308.851562 L 199.886719 309.308594 L 202.722656 309.851562 L 205.539062 310.480469 L 208.339844 311.1875 L 211.113281 311.980469 L 213.867188 312.855469 L 216.589844 313.808594 L 219.28125 314.847656 L 221.945312 315.960938 L 224.574219 317.15625 L 227.164062 318.425781 L 229.714844 319.773438 L 232.230469 321.195312 L 234.695312 322.691406 L 237.117188 324.261719 L 239.496094 325.902344 L 241.820312 327.609375 L 244.09375 329.390625 L 246.3125 331.234375 L 248.476562 333.140625 L 250.585938 335.113281 L 252.628906 337.148438 L 254.617188 339.242188 L 256.539062 341.394531 L 258.398438 343.601562 L 260.1875 345.863281 L 261.910156 348.179688 L 263.566406 350.542969 L 265.152344 352.953125 L 266.660156 355.414062 L 268.097656 357.914062 L 269.460938 360.457031 L 270.746094 363.039062 L 271.957031 365.660156 M 331.40625 750.722656 L 331.363281 747.976562 L 331.234375 745.230469 L 331.015625 742.492188 L 330.714844 739.761719 L 330.324219 737.042969 L 329.851562 734.335938 L 329.292969 731.648438 L 328.648438 728.976562 L 327.917969 726.328125 L 327.109375 723.703125 L 326.214844 721.105469 L 325.242188 718.535156 L 324.183594 716 L 323.050781 713.496094 L 321.835938 711.03125 L 320.546875 708.605469 L 319.179688 706.222656 L 317.738281 703.882812 L 316.226562 701.589844 L 314.640625 699.347656 L 312.984375 697.152344 L 311.261719 695.015625 L 309.46875 692.929688 L 307.613281 690.902344 L 305.695312 688.9375 L 303.714844 687.027344 L 301.679688 685.1875 L 299.582031 683.410156 L 297.433594 681.699219 M 612.570312 750.722656 L 612.609375 746.804688 L 612.734375 742.890625 L 612.945312 738.980469 L 613.234375 735.074219 L 613.609375 731.175781 L 614.066406 727.285156 L 614.605469 723.40625 L 615.230469 719.539062 L 615.933594 715.6875 L 616.722656 711.851562 L 617.589844 708.03125 L 618.535156 704.230469 L 619.566406 700.453125 L 620.675781 696.695312 L 621.867188 692.964844 L 623.132812 689.257812 L 624.480469 685.582031 L 625.90625 681.933594 L 627.40625 678.316406 L 628.988281 674.730469 L 630.640625 671.179688 L 632.375 667.667969 L 634.175781 664.191406 L 636.054688 660.753906 L 638.003906 657.355469 L 640.027344 654 L 642.121094 650.691406 L 644.285156 647.425781 L 646.515625 644.207031 M 271.960938 428.550781 L 271.921875 432.058594 L 271.792969 435.570312 L 271.582031 439.074219 L 271.289062 442.578125 L 270.910156 446.066406 L 270.445312 449.550781 L 269.902344 453.019531 L 269.273438 456.472656 L 268.558594 459.914062 L 267.765625 463.335938 L 266.886719 466.734375 L 265.929688 470.113281 L 264.890625 473.472656 L 263.773438 476.800781 L 262.574219 480.101562 L 261.296875 483.371094 L 260 486.691406 L 258.777344 490.039062 L 257.636719 493.414062 L 256.574219 496.816406 L 255.589844 500.242188 L 254.6875 503.691406 L 253.867188 507.15625 L 253.125 510.644531 L 252.464844 514.144531 L 251.886719 517.660156 L 251.390625 521.191406 L 250.976562 524.726562 L 250.644531 528.277344 M 581.621094 282.472656 L 581.664062 280.402344 L 581.789062 278.332031 L 582 276.269531 L 582.289062 274.21875 L 582.660156 272.183594 L 583.121094 270.160156 L 583.65625 268.15625 L 584.273438 266.179688 L 584.96875 264.226562 L 585.742188 262.304688 L 586.59375 260.414062 L 587.519531 258.5625 L 588.519531 256.746094 L 589.59375 254.972656 L 590.734375 253.246094 L 591.949219 251.5625 L 593.226562 249.933594 L 594.570312 248.355469 L 595.976562 246.832031 L 597.445312 245.367188 L 598.964844 243.960938 L 600.546875 242.617188 L 602.179688 241.339844 L 603.863281 240.128906 L 605.589844 238.984375 L 607.367188 237.914062 L 609.179688 236.914062 L 611.035156 235.988281 L 612.925781 235.136719 L 614.851562 234.363281 L 616.804688 233.667969 L 618.785156 233.050781 L 620.785156 232.515625 L 622.808594 232.058594 L 624.851562 231.6875 L 626.902344 231.394531 L 628.964844 231.1875 L 631.035156 231.0625 L 633.109375 231.019531 L 635.179688 231.0625 L 637.25 231.1875 L 639.3125 231.394531 L 641.367188 231.6875 L 643.40625 232.058594 L 645.429688 232.515625 L 647.433594 233.050781 L 649.414062 233.667969 L 651.363281 234.363281 L 653.289062 235.136719 L 655.179688 235.988281 L 657.035156 236.914062 L 658.851562 237.914062 L 660.625 238.984375 L 662.355469 240.128906 L 664.039062 241.339844 L 665.671875 242.617188 L 667.25 243.960938 L 668.777344 245.367188 L 670.238281 246.832031 L 671.648438 248.355469 L 672.992188 249.933594 L 674.269531 251.5625 L 675.480469 253.246094 L 676.625 254.972656 L 677.695312 256.746094 L 678.695312 258.5625 L 679.621094 260.414062 L 680.472656 262.304688 L 681.25 264.226562 L 681.945312 266.179688 L 682.5625 268.15625 L 683.101562 270.160156 L 683.554688 272.183594 L 683.929688 274.21875 L 684.21875 276.269531 L 684.429688 278.332031 L 684.554688 280.402344 L 684.59375 282.472656 " fill-opacity="1" fill-rule="nonzero"/><g clip-path="url(#4de7db0ecf)"><path stroke-linecap="round" transform="matrix(1.453053, 0, 0, 1.452133, -27.319924, -206.20292)" fill="none" stroke-linejoin="round" d="M 463.729569 585.638783 L 465.396318 583.236606 L 467.014677 580.802149 L 468.579271 578.332722 L 470.095474 575.831015 L 471.557912 573.299717 L 472.97196 570.73883 L 474.329554 568.148352 L 475.633382 565.530975 L 476.886131 562.889387 L 478.079739 560.220899 L 479.222268 557.528201 L 480.308343 554.811293 L 481.337964 552.075555 L 482.31113 549.318297 L 483.227842 546.542209 L 484.085411 543.747291 L 484.886526 540.933543 L 485.628498 538.106344 L 486.314015 535.263006 L 486.94039 532.406218 L 487.510311 529.535979 L 488.015712 526.657671 L 488.467347 523.768602 L 488.857151 520.871464 L 489.185124 517.966255 L 489.453955 515.052977 L 489.666331 512.137008 L 489.814188 509.21566 L 489.90559 506.294311 L 489.935161 503.370273 M 205.956116 182.479233 L 205.956116 437.128829 M 276.822511 182.479233 L 276.822511 403.33964 M 489.932473 336.530604 L 489.932473 503.370273 M 419.066078 306.230355 L 419.066078 403.33964 M 347.941607 292.670026 L 347.941607 403.33964 M 157.862349 478.054608 L 157.862349 463.983177 M 246.864046 658.995298 L 246.864046 694.845033 M 440.362827 658.995298 L 440.362827 694.845033 M 276.825199 182.476543 L 276.795628 181.050839 L 276.709602 179.625135 L 276.564434 178.204811 L 276.365499 176.792556 L 276.107422 175.388372 L 275.792891 173.997638 L 275.424593 172.617664 L 274.999841 171.25652 L 274.521323 169.911516 L 273.989038 168.588032 L 273.402988 167.286069 L 272.76586 166.011005 L 272.074965 164.760151 L 271.33837 163.538888 L 270.550697 162.347214 L 269.717322 161.190511 L 268.838247 160.066087 L 267.91347 158.979324 L 266.94568 157.930221 L 265.934878 156.921468 L 264.886439 155.953065 L 263.800364 155.030393 L 262.676653 154.15076 L 261.517994 153.314168 L 260.327075 152.528685 L 259.106585 151.788933 L 257.856523 151.102981 L 256.579578 150.462759 L 255.278439 149.879028 L 253.955793 149.346406 L 252.611641 148.867585 L 251.248671 148.442563 L 249.86957 148.074032 L 248.477029 147.759301 L 247.073734 147.501061 L 245.662374 147.302 L 244.242949 147.15674 L 242.818148 147.073349 L 241.390658 147.043759 L 239.963168 147.073349 L 238.538367 147.15674 L 237.118942 147.302 L 235.707582 147.501061 L 234.304287 147.759301 L 232.911746 148.074032 L 231.532645 148.442563 L 230.169675 148.867585 L 228.825523 149.346406 L 227.502877 149.879028 L 226.201738 150.462759 L 224.924793 151.102981 L 223.674731 151.788933 L 222.454241 152.528685 L 221.263322 153.314168 L 220.104663 154.15076 L 218.980952 155.030393 L 217.894877 155.953065 L 216.846438 156.921468 L 215.835636 157.930221 L 214.867846 158.979324 L 213.943069 160.066087 L 213.063994 161.190511 L 212.230619 162.347214 L 211.442946 163.538888 L 210.706351 164.760151 L 210.015456 166.011005 L 209.378328 167.286069 L 208.792278 168.588032 L 208.259993 169.911516 L 207.781475 171.25652 L 207.356723 172.617664 L 206.988425 173.997638 L 206.673894 175.388372 L 206.415817 176.792556 L 206.216882 178.204811 L 206.071714 179.625135 L 205.985688 181.050839 L 205.956116 182.476543 M 223.489238 611.454789 L 221.018687 609.515293 L 218.583083 607.527378 L 216.187803 605.496422 L 213.827472 603.419736 L 211.507465 601.300009 L 209.230471 599.137243 L 206.991114 596.931437 L 204.792081 594.68528 L 202.638749 592.398773 L 200.525741 590.071916 L 198.458435 587.70471 L 196.434142 585.299842 L 194.45555 582.860005 L 192.522659 580.382508 L 190.638158 577.870041 L 188.799357 575.319913 L 187.006258 572.737506 L 185.264237 570.122818 L 183.570605 567.47585 L 181.928051 564.799292 L 180.333886 562.090455 L 178.7908 559.352027 L 177.301479 556.586698 L 175.860548 553.79178 L 174.473383 550.972652 L 173.139984 548.129314 L 171.860351 545.259075 L 170.631795 542.364627 L 169.459695 539.451348 L 168.34136 536.51386 L 167.276791 533.557541 L 166.271366 530.579702 L 165.317017 527.585723 L 164.421812 524.572915 L 163.583061 521.546656 L 162.798076 518.501567 L 162.072234 515.445718 L 161.402846 512.373729 L 160.789913 509.29367 L 160.236122 506.200161 L 159.741474 503.095892 L 159.30328 499.986243 L 158.921541 496.865834 L 158.598945 493.740044 L 158.338179 490.608875 L 158.13118 487.472326 L 157.986011 484.333087 L 157.897297 481.193848 L 157.867726 478.051918 M 136.570978 354.491787 L 135.162306 354.690847 L 133.764388 354.949088 L 132.374534 355.263819 L 131.000811 355.63235 L 129.643217 356.057371 L 128.304441 356.533503 L 126.981795 357.063434 L 125.686033 357.647166 L 124.411776 358.282008 L 123.164403 358.96796 L 121.943913 359.702332 L 120.758371 360.482434 L 119.6024 361.313647 L 118.478688 362.187899 L 117.392613 363.107882 L 116.344175 364.068215 L 115.33606 365.071588 L 114.368271 366.115311 L 113.440806 367.194004 L 112.559042 368.310357 L 111.722979 369.461681 L 110.935306 370.645284 L 110.193334 371.861168 L 109.499751 373.103951 L 108.857247 374.373635 L 108.26582 375.667529 L 107.728159 376.982943 L 107.241576 378.319876 L 106.811447 379.67833 L 106.432396 381.050234 L 106.109799 382.435589 L 105.846346 383.831703 L 105.633969 385.241267 L 105.480736 386.653521 L 105.383957 388.073845 L 105.343633 389.496859 L 105.359762 390.917183 L 105.435035 392.340198 L 105.564074 393.755142 L 105.752255 395.167396 L 105.994202 396.56889 L 106.295292 397.959624 L 106.650149 399.336908 L 107.058771 400.700742 L 107.521159 402.045746 L 108.040002 403.37192 L 108.607234 404.673884 L 109.230921 405.954327 L 109.902997 407.207871 L 110.623463 408.434515 L 111.392318 409.631568 L 112.212251 410.796342 L 113.075196 411.926145 L 113.981155 413.020978 L 114.932815 414.080841 L 115.924799 415.100354 L 116.957108 416.079517 L 118.029741 417.01564 L 119.137323 417.908722 L 120.279852 418.756075 L 121.454641 419.557697 L 122.659002 420.313589 L 123.895622 421.018371 L 125.159125 421.674733 L 126.446823 422.277295 L 127.758715 422.831437 L 129.092114 423.329088 M 347.95236 292.659266 L 347.922788 291.228181 L 347.836763 289.799787 L 347.694282 288.374083 L 347.49266 286.953759 L 347.234582 285.546885 L 346.917363 284.150771 L 346.546376 282.765417 L 346.121624 281.398893 L 345.640418 280.051199 L 345.105445 278.722335 L 344.519395 277.414991 L 343.879578 276.134547 L 343.185996 274.878314 L 342.446712 273.65436 L 341.656351 272.459997 L 340.820288 271.297913 L 339.935836 270.16811 L 339.008371 269.078657 L 338.037893 268.024174 L 337.024402 267.012731 L 335.973275 266.041638 L 334.881823 265.113585 L 333.752735 264.231262 L 332.591388 263.39198 L 331.395092 262.603808 L 330.169226 261.864056 L 328.916476 261.172724 L 327.634154 260.532502 L 326.330327 259.94339 L 324.999616 259.408078 L 323.650087 258.929257 L 322.28174 258.501546 L 320.899952 258.133015 L 319.502033 257.818284 L 318.09605 257.560043 L 316.676625 257.358292 L 315.251824 257.213032 L 313.821646 257.126952 L 312.38878 257.097362 L 310.958602 257.126952 L 309.528424 257.213032 L 308.103622 257.358292 L 306.684197 257.560043 L 305.278214 257.818284 L 303.880296 258.133015 L 302.495819 258.501546 L 301.13016 258.929257 L 299.780632 259.408078 L 298.449921 259.94339 L 297.146093 260.532502 L 295.863772 261.172724 L 294.611022 261.864056 L 293.385155 262.603808 L 292.18886 263.39198 L 291.027512 264.231262 L 289.901113 265.113585 L 288.809661 266.041638 L 287.755846 267.012731 L 286.742355 268.024174 L 285.771877 269.078657 L 284.844412 270.16811 L 283.95996 271.297913 L 283.123897 272.459997 L 282.333535 273.65436 L 281.594252 274.878314 L 280.900669 276.134547 L 280.260853 277.414991 L 279.674802 278.722335 L 279.13983 280.051199 L 278.658623 281.398893 L 278.233871 282.765417 L 277.862885 284.150771 L 277.545665 285.546885 L 277.290276 286.953759 L 277.088653 288.374083 L 276.943485 289.799787 L 276.857459 291.228181 L 276.827888 292.659266 M 347.949671 306.222285 L 347.981931 304.791201 L 348.067957 303.360117 L 348.213125 301.934413 L 348.41206 300.516779 L 348.670137 299.107215 L 348.984669 297.7111 L 349.355655 296.328436 L 349.783095 294.959222 L 350.261613 293.611528 L 350.796586 292.282665 L 351.385325 290.975321 L 352.025141 289.694877 L 352.716035 288.441333 L 353.458007 287.21469 L 354.245681 286.020326 L 355.084432 284.858243 L 355.966195 283.73113 L 356.896349 282.638986 L 357.866827 281.587193 L 358.880317 280.57306 L 359.931445 279.601967 L 361.022896 278.673915 L 362.149296 277.791592 L 363.313332 276.955 L 364.506939 276.164137 L 365.732806 275.424385 L 366.988244 274.733053 L 368.267877 274.092831 L 369.574393 273.50372 L 370.902415 272.971098 L 372.251944 272.489587 L 373.620291 272.064565 L 375.00208 271.693344 L 376.399998 271.378613 L 377.808669 271.120373 L 379.228094 270.918622 L 380.652896 270.776052 L 382.083074 270.687281 L 383.513252 270.660381 L 384.946118 270.687281 L 386.376296 270.776052 L 387.801097 270.918622 L 389.217834 271.120373 L 390.626505 271.378613 L 392.024424 271.693344 L 393.406212 272.064565 L 394.774559 272.489587 L 396.124088 272.971098 L 397.45211 273.50372 L 398.758626 274.092831 L 400.040948 274.733053 L 401.296386 275.424385 L 402.522253 276.164137 L 403.71586 276.955 L 404.877207 277.791592 L 406.006295 278.673915 L 407.095059 279.601967 L 408.148874 280.57306 L 409.162365 281.587193 L 410.132843 282.638986 L 411.060308 283.73113 L 411.942072 284.858243 L 412.780823 286.020326 L 413.571184 287.21469 L 414.313156 288.441333 L 415.001362 289.694877 L 415.641179 290.975321 L 416.229917 292.282665 L 416.76489 293.611528 L 417.246096 294.959222 L 417.670848 296.328436 L 418.041834 297.7111 L 418.356366 299.107215 L 418.614443 300.516779 L 418.816066 301.934413 L 418.961235 303.360117 L 419.04726 304.791201 L 419.074143 306.222285 M 157.875791 463.969727 L 157.846219 462.361103 L 157.754817 460.755168 L 157.604272 459.154613 L 157.394584 457.559438 L 157.125754 455.972334 L 156.797781 454.395989 L 156.410665 452.835785 L 155.967094 451.28903 L 155.464382 449.761106 L 154.905214 448.252011 L 154.292281 446.764437 L 153.620205 445.301073 L 152.897051 443.864608 L 152.120131 442.455044 L 151.292133 441.07776 L 150.410369 439.730066 L 149.480216 438.417342 L 148.504361 437.139589 L 147.477429 435.899495 L 146.407484 434.699752 L 145.291837 433.540358 L 144.135866 432.421315 L 142.936883 431.348002 L 141.700263 430.317729 L 140.426006 429.338566 L 139.114114 428.405133 L 137.769961 427.520121 L 136.393549 426.688908 L 134.984878 425.908806 L 133.552012 425.179814 L 132.089574 424.507312 L 130.60563 423.88861 L 129.097491 423.323708 M 136.579042 354.486407 L 138.552258 354.273896 L 140.533538 354.117876 L 142.517507 354.023725 L 144.504164 353.986065 L 146.490821 354.010275 L 148.477478 354.090976 L 150.458759 354.230856 L 152.434662 354.429917 L 154.40519 354.688157 L 156.364964 355.002888 L 158.316673 355.376799 L 160.25494 355.809891 L 162.182454 356.296782 L 164.091151 356.842854 L 165.986405 357.445415 L 167.860154 358.101777 L 169.712395 358.817319 L 171.545819 359.583972 L 173.355048 360.407114 L 175.137394 361.281367 L 176.892857 362.209419 L 178.624125 363.188582 L 180.320445 364.218855 L 181.987194 365.300238 L 183.624371 366.430042 L 185.223912 367.605575 L 186.788505 368.832219 L 188.315462 370.101902 L 189.804783 371.414626 L 191.256468 372.77308 L 192.662451 374.174574 L 194.030798 375.616419 L 195.353444 377.098613 L 196.633077 378.618467 L 197.86432 380.175982 L 199.049862 381.771157 L 200.189703 383.398611 L 201.281155 385.058346 L 202.318841 386.753051 L 203.308137 388.474656 L 204.246355 390.225851 L 205.130807 392.003947 L 205.964181 393.808942 M 246.877487 658.979158 L 246.847916 657.088083 L 246.759202 655.197007 L 246.608657 653.311312 L 246.401658 651.430996 L 246.132827 649.558751 L 245.807542 647.694575 L 245.423115 645.84385 L 244.979544 644.003884 L 244.476832 642.180059 L 243.920353 640.372374 L 243.304731 638.583518 L 242.635343 636.813493 L 241.906812 635.067678 L 241.127204 633.343383 L 240.291141 631.645988 L 239.404001 629.975493 L 238.463094 628.334588 L 237.47111 626.723274 L 236.430736 625.144239 L 235.339285 623.600175 L 234.199443 622.08839 L 233.013901 620.616956 L 231.779969 619.180492 L 230.503025 617.784378 L 229.183067 616.431304 L 227.820097 615.11589 L 226.41949 613.848896 L 224.975871 612.624942 L 223.497303 611.446719 M 440.376268 658.979158 L 440.403151 656.28108 L 440.489177 653.585692 L 440.634345 650.892995 L 440.83328 648.202987 L 441.091357 645.518359 L 441.405889 642.839111 L 441.776875 640.167933 L 442.207004 637.504825 L 442.690898 634.852478 L 443.233936 632.21089 L 443.830739 629.580062 L 444.481309 626.962684 L 445.191021 624.361447 L 445.9545 621.773659 L 446.774433 619.204702 L 447.645443 616.651884 L 448.572909 614.120587 L 449.55414 611.608119 L 450.586449 609.117172 L 451.675212 606.647745 L 452.812365 604.202528 L 454.005972 601.784211 L 455.24528 599.390104 L 456.538355 597.022897 L 457.879819 594.68259 L 459.27236 592.371873 L 460.713292 590.093437 L 462.202612 587.84459 L 463.737634 585.628023 M 205.96687 437.118069 L 205.939987 439.533696 L 205.851273 441.952013 L 205.706104 444.36495 L 205.504481 446.777887 L 205.243716 449.180064 L 204.923808 451.579551 L 204.550133 453.968278 L 204.117316 456.346245 L 203.625357 458.716142 L 203.079631 461.072589 L 202.474762 463.412896 L 201.816128 465.739752 L 201.101039 468.053159 L 200.332183 470.345046 L 199.506874 472.618103 L 198.627798 474.869639 L 197.735281 477.156146 L 196.893842 479.461483 L 196.108857 481.785649 L 195.377638 484.128646 L 194.700186 486.487783 L 194.079187 488.86306 L 193.514643 491.249097 L 193.003865 493.651274 L 192.549542 496.061521 L 192.151673 498.482528 L 191.810258 500.914295 L 191.525298 503.348753 L 191.296792 505.79397 M 419.076832 336.522534 L 419.106403 335.09683 L 419.192429 333.671126 L 419.337597 332.250802 L 419.536532 330.838547 L 419.791921 329.437053 L 420.109141 328.043629 L 420.477438 326.663655 L 420.90219 325.302511 L 421.380709 323.957507 L 421.912993 322.634023 L 422.499043 321.33206 L 423.136171 320.056996 L 423.824377 318.806142 L 424.563661 317.584879 L 425.348646 316.395895 L 426.184709 315.236502 L 427.063784 314.114769 L 427.988561 313.028005 L 428.956351 311.978902 L 429.967153 310.970149 L 431.012904 310.001746 L 432.101667 309.076384 L 433.225378 308.196751 L 434.384037 307.362849 L 435.572268 306.574676 L 436.795447 305.837614 L 438.04282 305.148972 L 439.319764 304.51144 L 440.620904 303.925019 L 441.946238 303.392397 L 443.29039 302.913576 L 444.653361 302.488554 L 446.029772 302.120023 L 447.422314 301.805292 L 448.828297 301.549742 L 450.239657 301.347991 L 451.659082 301.205421 L 453.083883 301.11934 L 454.511373 301.08975 L 455.936175 301.11934 L 457.360976 301.205421 L 458.780401 301.347991 L 460.194449 301.549742 L 461.597744 301.805292 L 462.990286 302.120023 L 464.369386 302.488554 L 465.732356 302.913576 L 467.07382 303.392397 L 468.399154 303.925019 L 469.700294 304.51144 L 470.977238 305.148972 L 472.2273 305.837614 L 473.44779 306.574676 L 474.638709 307.362849 L 475.797368 308.196751 L 476.921079 309.076384 L 478.007154 310.001746 L 479.058281 310.970149 L 480.063707 311.978902 L 481.034185 313.028005 L 481.958962 314.114769 L 482.838038 315.236502 L 483.671412 316.395895 L 484.459085 317.584879 L 485.195681 318.806142 L 485.883887 320.056996 L 486.521015 321.33206 L 487.107065 322.634023 L 487.642038 323.957507 L 488.120556 325.302511 L 488.545308 326.663655 L 488.916294 328.043629 L 489.228137 329.437053 L 489.486215 330.838547 L 489.685149 332.250802 L 489.830318 333.671126 L 489.916343 335.09683 L 489.943226 336.522534 " stroke="#000000" stroke-width="10" stroke-opacity="1" stroke-miterlimit="4"/></g></svg>